<?xml version="1.0" encoding="UTF-8"?>
<svg id="Layer_1" xmlns="http://www.w3.org/2000/svg" viewBox="0 0 188.65 87.07">
  <polygon points="141.26 87.07 144.53 87.07 144.53 0 141.26 0 141.26 87.07 141.26 87.07" fill="#e08b35"/>
  <polygon points="185.7 87.07 188.65 87.07 188.65 0 185.7 0 185.7 87.07 185.7 87.07" fill="#e08b35"/>
  <polygon points="187.48 41.17 187.48 44.13 142.18 44.13 142.18 41.17 187.48 41.17 187.48 41.17" fill="#e08b35"/>
  <polygon points="107.2 87.07 136.53 87.07 136.53 0 107.2 0 107.2 87.07 107.2 87.07" fill="#4c6684"/>
  <polygon points="0 0 42.93 85.88 85.58 0 82.33 0 50.35 64.27 48.87 61 79.37 0 75.81 0 47.08 57.46 17.76 0 0 0 0 0" fill="#4c6684"/>
  <polygon points="38.5 0 81.43 85.88 124.1 0 120.84 0 88.84 64.27 87.36 61 117.87 0 114.31 0 85.58 57.46 56.57 0 38.5 0 38.5 0" fill="#e08b35"/>
</svg>